<?xml version="1.0" standalone="no"?><!DOCTYPE svg PUBLIC "-//W3C//DTD SVG 1.1//EN" "http://www.w3.org/Graphics/SVG/1.1/DTD/svg11.dtd"><svg t="1747381188197" class="icon" viewBox="0 0 1024 1024" version="1.1" xmlns="http://www.w3.org/2000/svg" p-id="4561" xmlns:xlink="http://www.w3.org/1999/xlink" width="200" height="200"><path d="M526.56355555 997.45185223h-4.85451889a500.50085888 500.50085888 0 0 1-356.32165888-152.91733333 507.78263666 507.78263666 0 0 1-12.62174777-679.63259335 491.76272555 491.76272555 0 0 1 194.18073998-133.01380665 48.54518557 48.54518557 0 0 1 51.45789668 10.67993998 48.54518557 48.54518557 0 0 1 11.65084444 48.54518557 407.77955555 407.77955555 0 0 0 94.17765888 427.6830811 411.1777189 411.1777189 0 0 0 428.65398556 94.17766002 48.54518557 48.54518557 0 0 1 61.65238557 62.62328888A493.2190811 493.2190811 0 0 1 880.94340779 851.81629667a499.04450333 499.04450333 0 0 1-354.37985224 145.63555556z" p-id="4562"></path></svg>