<?xml version="1.0" standalone="no"?><!DOCTYPE svg PUBLIC "-//W3C//DTD SVG 1.1//EN" "http://www.w3.org/Graphics/SVG/1.1/DTD/svg11.dtd"><svg t="1747381185306" class="icon" viewBox="0 0 1024 1024" version="1.1" xmlns="http://www.w3.org/2000/svg" p-id="4400" xmlns:xlink="http://www.w3.org/1999/xlink" width="200" height="200"><path d="M259.56503666 186.74725925L172.18370333 99.36592592 99.36592555 172.1837037l87.38133333 87.38133333L259.56503666 186.74725925zM123.6385189 463.45481482L-21.99703666 463.45481482l0 97.09036998 145.63555556 0L123.6385189 463.45481482zM560.54518557-17.14251852l-97.09037 0 0 140.78103665 97.09037 0L560.54518557-17.14251852zM924.63407445 172.1837037L851.81629667 99.36592592l-87.38133333 87.38133333 67.96325888 67.96325888L924.63407445 172.1837037zM764.43496334 837.25274036L851.81629667 924.6340737l67.96325888-67.96325888-87.38133333-87.38133334L764.43496334 837.25274036zM900.3614811 463.45481482l0 97.09036998 145.63555556 0 0-97.09036998L900.3614811 463.45481482zM512 220.72888927c-160.19911111 0-291.27111111 131.072-291.27111111 291.2711111s131.072 291.27111111 291.27111111 291.27111112 291.27111111-131.072 291.27111111-291.27111112S672.19911111 220.72888927 512 220.72888927zM463.45481443 1041.14251813c14.56355555 0 97.09036999 0 97.09037 0l0-140.78103665-97.09037 0L463.45481443 1041.14251813zM99.36592555 851.81629591L172.18370333 924.6340737l87.38133333-87.38133334-67.96325888-67.96325888L99.36592555 851.81629591z" p-id="4401"></path></svg>